<svg xmlns="http://www.w3.org/2000/svg" xmlns:xlink="http://www.w3.org/1999/xlink" width="304" height="82" fill="none"><path d="M4.368 45V12.47h6.041v27.418h17.008V45H4.368zm26.89 0V12.47h6.041V45h-6.041zm13.911 0V12.47h15.243c3.904 0 6.878.774 8.923 2.323 2.045 1.518 3.067 3.563 3.067 6.134 0 1.735-.403 3.222-1.208 4.461-.805 1.208-1.89 2.153-3.253 2.835-1.332.651-2.788.976-4.368.976l.836-1.673c1.828 0 3.47.341 4.926 1.022 1.456.651 2.602 1.611 3.439 2.881.867 1.27 1.301 2.85 1.301 4.74 0 2.788-1.069 4.957-3.207 6.506S65.554 45 61.341 45H45.169zm6.041-4.74h9.759c2.262 0 3.997-.372 5.205-1.115s1.812-1.936 1.812-3.578c0-1.611-.604-2.788-1.812-3.532-1.208-.774-2.943-1.162-5.205-1.162H50.745v-4.694h9.016c2.107 0 3.718-.372 4.833-1.115 1.146-.744 1.719-1.859 1.719-3.346 0-1.518-.573-2.649-1.719-3.392-1.115-.744-2.726-1.115-4.833-1.115H51.21v23.05zM79.592 45V12.47h13.384c2.881 0 5.344.465 7.389 1.394 2.075.929 3.671 2.262 4.786 3.997s1.673 3.795 1.673 6.181-.557 4.446-1.673 6.181c-1.115 1.704-2.711 3.021-4.786 3.95-2.045.898-4.508 1.348-7.389 1.348H82.938l2.695-2.742V45h-6.041zm21.284 0L92.65 33.196h6.459L107.382 45h-6.506zM85.633 33.429l-2.695-2.881h9.759c2.664 0 4.663-.573 5.995-1.719 1.363-1.146 2.044-2.742 2.044-4.787 0-2.076-.681-3.671-2.044-4.786-1.332-1.115-3.331-1.673-5.995-1.673h-9.759l2.695-2.974v18.821zM108.053 45l14.639-32.53h5.948L143.325 45h-6.32l-12.594-29.323h2.417L114.28 45h-6.227zm6.738-7.528l1.627-4.74h17.566l1.627 4.74h-20.82zM146.532 45V12.47h13.384c2.881 0 5.344.465 7.389 1.394 2.076.929 3.671 2.262 4.787 3.997s1.673 3.795 1.673 6.181-.558 4.446-1.673 6.181c-1.116 1.704-2.711 3.021-4.787 3.95-2.045.898-4.508 1.348-7.389 1.348h-10.038l2.696-2.742V45h-6.042zm21.284 0l-8.225-11.804h6.459L174.322 45h-6.506zm-15.242-11.571l-2.696-2.881h9.759c2.665 0 4.663-.573 5.995-1.719 1.363-1.146 2.045-2.742 2.045-4.787 0-2.076-.682-3.671-2.045-4.786-1.332-1.115-3.33-1.673-5.995-1.673h-9.759l2.696-2.974v18.821zM187.134 45V32.127l1.347 3.718-14.127-23.375h6.459l11.339 18.821h-3.624L199.96 12.47h5.948l-14.127 23.375 1.394-3.718V45h-6.041z" fill="url(#A)"/><path d="M24.803 55.14c1.269 0 2.389.248 3.36.743.991.496 1.764 1.259 2.319 2.29.555 1.011.832 2.319.832 3.925v9.099h-3.717v-8.623c0-1.407-.307-2.458-.922-3.152s-1.497-1.041-2.646-1.041c-.813 0-1.536.178-2.171.535-.614.357-1.1.882-1.457 1.576-.337.694-.506 1.576-.506 2.646v8.058H16.18v-8.623c0-1.407-.307-2.458-.922-3.152s-1.497-1.041-2.646-1.041c-.813 0-1.536.178-2.171.535-.615.357-1.1.882-1.457 1.576-.337.694-.505 1.576-.505 2.646v8.058H4.762V55.319H8.3v4.222l-.624-1.249c.535-1.031 1.308-1.814 2.319-2.349 1.031-.535 2.2-.803 3.509-.803 1.487 0 2.775.367 3.865 1.1 1.11.733 1.844 1.843 2.2 3.33l-1.457-.505c.515-1.189 1.368-2.141 2.557-2.855s2.567-1.07 4.133-1.07zm20.45 16.057v-3.211l-.208-.684v-5.62c0-1.09-.327-1.933-.981-2.527-.654-.615-1.645-.922-2.974-.922-.892 0-1.774.139-2.646.416-.852.278-1.576.664-2.171 1.16l-1.457-2.706c.852-.654 1.863-1.14 3.033-1.457a13.46 13.46 0 0 1 3.687-.505c2.299 0 4.074.555 5.323 1.665 1.269 1.09 1.903 2.785 1.903 5.085v9.307h-3.509zm-4.995.208c-1.189 0-2.23-.198-3.122-.595-.892-.416-1.586-.981-2.081-1.695-.476-.733-.714-1.556-.714-2.468 0-.892.208-1.695.624-2.408.436-.714 1.14-1.279 2.111-1.695s2.26-.624 3.866-.624h4.609v2.468h-4.341c-1.269 0-2.121.208-2.557.624-.436.397-.654.892-.654 1.487 0 .674.268 1.209.803 1.606s1.279.595 2.23.595c.912 0 1.725-.208 2.438-.624.733-.416 1.259-1.031 1.576-1.844l.624 2.23c-.357.932-1.001 1.655-1.933 2.171-.912.515-2.071.773-3.479.773zM61.946 55.14c1.269 0 2.399.248 3.39.743 1.011.496 1.804 1.259 2.379 2.29.575 1.011.862 2.319.862 3.925v9.099H64.86v-8.623c0-1.407-.337-2.458-1.011-3.152-.654-.694-1.576-1.041-2.765-1.041-.872 0-1.645.178-2.319.535s-1.199.892-1.576 1.606c-.357.694-.535 1.576-.535 2.646v8.028h-3.717V55.319h3.538V59.6l-.624-1.308c.555-1.011 1.358-1.784 2.409-2.319 1.07-.555 2.299-.833 3.687-.833zM82.48 71.197v-3.211l-.208-.684v-5.62c0-1.09-.327-1.933-.981-2.527-.654-.615-1.645-.922-2.973-.922a8.68 8.68 0 0 0-2.646.416c-.852.278-1.576.664-2.171 1.16l-1.457-2.706c.852-.654 1.863-1.14 3.033-1.457a13.46 13.46 0 0 1 3.687-.505c2.299 0 4.074.555 5.322 1.665 1.269 1.09 1.903 2.785 1.903 5.085v9.307H82.48zm-4.995.208c-1.189 0-2.23-.198-3.122-.595-.892-.416-1.586-.981-2.081-1.695-.476-.733-.714-1.556-.714-2.468 0-.892.208-1.695.624-2.408.436-.714 1.14-1.279 2.111-1.695s2.26-.624 3.865-.624h4.609v2.468h-4.341c-1.269 0-2.121.208-2.557.624-.436.397-.654.892-.654 1.487 0 .674.268 1.209.803 1.606s1.279.595 2.23.595c.912 0 1.725-.208 2.438-.624.733-.416 1.259-1.031 1.576-1.844l.624 2.23c-.357.932-1.001 1.655-1.933 2.171-.912.515-2.072.773-3.479.773zm19.904 5.769a15.83 15.83 0 0 1-4.312-.595c-1.388-.377-2.527-.932-3.419-1.665l1.665-2.795c.694.575 1.566 1.031 2.617 1.368a10.19 10.19 0 0 0 3.241.535c1.745 0 3.023-.406 3.836-1.219.813-.793 1.219-1.992 1.219-3.598V66.38l.297-3.598-.119-3.598v-3.865h3.539v13.47c0 2.874-.734 4.986-2.201 6.334-1.467 1.368-3.588 2.052-6.363 2.052zm-.476-6.69c-1.507 0-2.874-.317-4.103-.951-1.209-.654-2.171-1.556-2.884-2.706-.694-1.15-1.041-2.498-1.041-4.044 0-1.526.347-2.864 1.041-4.014a7.35 7.35 0 0 1 2.884-2.676c1.229-.634 2.597-.952 4.103-.952 1.348 0 2.557.268 3.628.803s1.923 1.368 2.557 2.498c.654 1.13.981 2.577.981 4.341s-.327 3.221-.981 4.371c-.634 1.13-1.487 1.972-2.557 2.527-1.07.535-2.28.803-3.628.803zm.565-3.152c.932 0 1.764-.188 2.498-.565.734-.396 1.299-.932 1.695-1.606.416-.694.624-1.487.624-2.379s-.208-1.675-.624-2.349c-.396-.694-.961-1.219-1.695-1.576-.734-.377-1.566-.565-2.498-.565s-1.774.188-2.527.565a4.02 4.02 0 0 0-1.725 1.576c-.396.674-.595 1.457-.595 2.349s.198 1.685.595 2.379c.416.674.991 1.209 1.725 1.606.753.377 1.596.565 2.527.565zm20.23 4.074c-1.764 0-3.311-.347-4.639-1.041-1.308-.714-2.329-1.685-3.062-2.914-.714-1.229-1.071-2.626-1.071-4.193 0-1.586.347-2.983 1.041-4.193.714-1.229 1.685-2.19 2.914-2.884 1.249-.694 2.666-1.041 4.252-1.041 1.546 0 2.924.337 4.133 1.011a7.32 7.32 0 0 1 2.855 2.854c.693 1.229 1.04 2.676 1.04 4.341a5.68 5.68 0 0 1-.029.535c0 .198-.01.386-.03.565H111.88v-2.468h11.269l-1.457.773c.02-.912-.168-1.715-.565-2.409s-.941-1.239-1.635-1.635c-.674-.396-1.457-.595-2.349-.595-.912 0-1.715.198-2.409.595a4.32 4.32 0 0 0-1.605 1.665c-.377.694-.565 1.516-.565 2.468v.595c0 .951.218 1.794.654 2.527a4.36 4.36 0 0 0 1.844 1.695c.792.396 1.704.595 2.735.595.892 0 1.695-.139 2.409-.416s1.348-.714 1.903-1.308l1.992 2.29c-.714.833-1.616 1.477-2.706 1.933-1.07.436-2.299.654-3.687.654zm30.48-16.265c1.269 0 2.389.248 3.36.743.991.496 1.764 1.259 2.319 2.29.555 1.011.833 2.319.833 3.925v9.099h-3.717v-8.623c0-1.407-.307-2.458-.922-3.152s-1.496-1.041-2.646-1.041c-.813 0-1.536.178-2.171.535-.614.357-1.1.882-1.457 1.576-.337.694-.505 1.576-.505 2.646v8.058h-3.717v-8.623c0-1.407-.307-2.458-.922-3.152s-1.496-1.041-2.646-1.041c-.813 0-1.536.178-2.171.535-.614.357-1.1.882-1.457 1.576-.337.694-.505 1.576-.505 2.646v8.058h-3.717V55.319h3.538v4.222l-.624-1.249c.535-1.031 1.308-1.814 2.319-2.349 1.031-.535 2.201-.803 3.509-.803 1.487 0 2.775.367 3.865 1.1 1.11.733 1.844 1.843 2.201 3.33l-1.457-.505c.515-1.189 1.368-2.141 2.557-2.855s2.567-1.07 4.133-1.07zm18.159 16.265c-1.764 0-3.31-.347-4.638-1.041-1.309-.714-2.329-1.685-3.063-2.914-.714-1.229-1.07-2.626-1.07-4.193 0-1.586.347-2.983 1.04-4.193.714-1.229 1.685-2.19 2.914-2.884 1.249-.694 2.667-1.041 4.252-1.041 1.547 0 2.924.337 4.134 1.011s2.16 1.625 2.854 2.854 1.041 2.676 1.041 4.341c0 .159-.01.337-.03.535 0 .198-.01.386-.03.565h-13.232v-2.468h11.27l-1.457.773c.02-.912-.169-1.715-.565-2.409s-.942-1.239-1.636-1.635c-.674-.396-1.457-.595-2.349-.595-.911 0-1.714.198-2.408.595a4.33 4.33 0 0 0-1.606 1.665c-.376.694-.565 1.516-.565 2.468v.595c0 .951.218 1.794.654 2.527s1.051 1.298 1.844 1.695 1.705.595 2.736.595c.892 0 1.694-.139 2.408-.416s1.348-.714 1.903-1.308l1.992 2.29c-.713.833-1.615 1.477-2.706 1.933-1.07.436-2.299.654-3.687.654zm19.449-16.265c1.269 0 2.399.248 3.39.743 1.011.496 1.804 1.259 2.378 2.29.575 1.011.863 2.319.863 3.925v9.099h-3.717v-8.623c0-1.407-.337-2.458-1.011-3.152-.654-.694-1.576-1.041-2.765-1.041-.873 0-1.646.178-2.32.535s-1.199.892-1.576 1.606c-.356.694-.535 1.576-.535 2.646v8.028h-3.717V55.319h3.539V59.6l-.625-1.308c.555-1.011 1.358-1.784 2.409-2.319 1.07-.555 2.299-.833 3.687-.833zm16.728 16.265c-1.745 0-3.093-.446-4.044-1.338-.952-.912-1.427-2.25-1.427-4.014V51.81h3.716v14.154c0 .753.189 1.338.565 1.754.397.416.942.624 1.636.624.832 0 1.526-.218 2.081-.654l1.041 2.646c-.436.357-.971.624-1.606.803a7.21 7.21 0 0 1-1.962.268zm-8.088-12.994v-2.974h10.585v2.974h-10.585z" fill="url(#B)"/><g clip-path="url(#F)"><path d="M231.001 10.843h-15.103c-1.384 0-2.517 1.133-2.517 2.517v55.378c0 1.384 1.133 2.517 2.517 2.517h15.103c1.385 0 2.517-1.133 2.517-2.517V13.361c0-1.384-1.132-2.517-2.517-2.517zm-2.517 15.103h-10.069v-5.034h10.069v5.034zm27.689-15.103H241.07c-1.384 0-2.517 1.133-2.517 2.517v55.378c0 1.384 1.133 2.517 2.517 2.517h15.103c1.385 0 2.517-1.133 2.517-2.517V13.361c0-1.384-1.132-2.517-2.517-2.517zm-2.517 15.103h-10.069v-5.034h10.069v5.034z" fill="url(#C)"/><path d="M273.562 14.735l-13.487 6.797c-.594.302-1.045.826-1.254 1.459s-.161 1.322.136 1.919l22.655 44.957c.302.594.826 1.045 1.459 1.254s1.322.16 1.919-.136l13.487-6.796c.594-.302 1.045-.826 1.254-1.459s.161-1.322-.136-1.919L276.94 15.853c-.302-.594-.826-1.045-1.459-1.254s-1.322-.16-1.919.136h0z" fill="url(#D)"/><path d="M286.38 68.739a2.52 2.52 0 0 1-.738 1.78c-.472.472-1.112.737-1.78.737a2.52 2.52 0 0 1-1.78-.737c-.472-.472-.737-1.112-.737-1.78s.265-1.308.737-1.78a2.52 2.52 0 0 1 1.78-.737c.668 0 1.308.265 1.78.737a2.52 2.52 0 0 1 .738 1.78z" fill="url(#E)"/></g><defs><linearGradient id="A" x1="103.011" y1="0" x2="103.011" y2="51.893" xlink:href="#G"><stop/><stop offset="1" stop-color="#375e92"/></linearGradient><linearGradient id="B" x1="104.824" y1="42.197" x2="104.824" y2="78.197" xlink:href="#G"><stop/><stop offset="1" stop-color="#375e92"/></linearGradient><linearGradient id="C" x1="236.036" y1="10.843" x2="236.036" y2="71.256" xlink:href="#G"><stop stop-color="#006dff"/><stop offset="1" stop-color="#375e92"/></linearGradient><linearGradient id="D" x1="279.276" y1="14.471" x2="279.276" y2="71.249" xlink:href="#G"><stop stop-color="#006dff"/><stop offset="1" stop-color="#375e92"/></linearGradient><linearGradient id="E" x1="283.862" y1="66.222" x2="283.862" y2="71.256" xlink:href="#G"><stop stop-color="#006dff"/><stop offset="1" stop-color="#375e92"/></linearGradient><clipPath id="F"><path fill="#fff" transform="translate(213.381 .775)" d="M0 0h90.619v80.55H0z"/></clipPath><linearGradient id="G" gradientUnits="userSpaceOnUse"/></defs></svg>
